<?xml version="1.0" standalone="no"?>
<!DOCTYPE svg PUBLIC "-//W3C//DTD SVG 20010904//EN"
 "http://www.w3.org/TR/2001/REC-SVG-20010904/DTD/svg10.dtd">
<svg version="1.0" xmlns="http://www.w3.org/2000/svg"
 width="1024.000000pt" height="1024.000000pt" viewBox="0 0 1024.000000 1024.000000"
 preserveAspectRatio="xMidYMid meet">

<g transform="translate(0.000000,1024.000000) scale(0.100000,-0.100000)"
fill="#000000" stroke="none">
<path d="M1630 10179 c-432 -49 -838 -259 -1116 -576 -237 -272 -384 -606
-423 -965 -15 -135 -15 -4280 0 -4416 43 -395 201 -736 471 -1017 160 -167
303 -271 508 -369 136 -65 258 -107 407 -138 103 -21 133 -23 620 -26 l513 -3
2 -1285 3 -1285 1204 1286 1204 1285 1801 0 c1936 0 1880 -1 2081 51 126 32
192 56 313 114 556 266 918 784 981 1404 15 139 15 4227 1 4372 -60 612 -414
1129 -955 1395 -202 99 -374 149 -597 173 -119 13 -6904 13 -7018 0z m6968
-509 c296 -32 536 -149 747 -364 171 -174 271 -358 326 -601 l23 -100 4 -2080
c3 -2102 1 -2251 -33 -2398 -61 -265 -214 -510 -419 -672 -153 -122 -299 -195
-496 -247 l-85 -23 -1935 -5 -1936 -5 -834 -891 -835 -891 -3 893 -2 894 -708
0 c-606 0 -722 2 -802 16 -257 44 -475 158 -660 344 -177 177 -282 374 -337
630 -17 81 -18 194 -18 2255 0 2414 -5 2229 66 2433 156 442 559 763 1022 812
117 12 6801 12 6915 0z"/>
<path d="M4975 8226 c-41 -18 -92 -77 -104 -123 -7 -26 -11 -493 -11 -1443 l0
-1405 -627 627 c-349 349 -641 632 -656 638 -44 16 -104 12 -145 -9 -45 -24
-174 -154 -196 -198 -22 -43 -20 -106 3 -151 30 -57 1759 -1779 1796 -1788 39
-10 131 -10 170 0 37 9 1766 1731 1796 1788 23 46 25 108 3 151 -24 46 -152
176 -196 198 -41 21 -102 25 -145 9 -15 -6 -307 -289 -655 -638 l-628 -627 0
1405 c0 950 -4 1417 -11 1443 -13 47 -63 106 -106 123 -43 18 -247 18 -288 0z"/>
</g>
</svg>
