<?xml version="1.0" standalone="no"?>
<!DOCTYPE svg PUBLIC "-//W3C//DTD SVG 20010904//EN"
 "http://www.w3.org/TR/2001/REC-SVG-20010904/DTD/svg10.dtd">
<svg version="1.0" xmlns="http://www.w3.org/2000/svg"
 width="1024.000000pt" height="1024.000000pt" viewBox="0 0 1024.000000 1024.000000"
 preserveAspectRatio="xMidYMid meet">

<g transform="translate(0.000000,1024.000000) scale(0.100000,-0.100000)" stroke="none">
<path d="M1630 10179 c-432 -49 -838 -259 -1116 -576 -237 -272 -384 -606
-423 -965 -15 -135 -15 -4280 0 -4416 43 -395 201 -736 471 -1017 160 -167
303 -271 508 -369 136 -65 258 -107 407 -138 103 -21 133 -23 620 -26 l513 -3
2 -1285 3 -1285 1204 1286 1204 1285 1801 0 c1936 0 1880 -1 2081 51 126 32
192 56 313 114 556 266 918 784 981 1404 15 139 15 4227 1 4372 -60 612 -414
1129 -955 1395 -202 99 -374 149 -597 173 -119 13 -6904 13 -7018 0z m6968
-509 c296 -32 536 -149 747 -364 171 -174 271 -358 326 -601 l23 -100 4 -2080
c3 -2102 1 -2251 -33 -2398 -61 -265 -214 -510 -419 -672 -153 -122 -299 -195
-496 -247 l-85 -23 -1935 -5 -1936 -5 -834 -891 -835 -891 -3 893 -2 894 -708
0 c-606 0 -722 2 -802 16 -257 44 -475 158 -660 344 -177 177 -282 374 -337
630 -17 81 -18 194 -18 2255 0 2414 -5 2229 66 2433 156 442 559 763 1022 812
117 12 6801 12 6915 0z"/>
<path d="M5015 8224 c-43 -22 -1753 -1732 -1776 -1776 -24 -47 -24 -108 0
-156 23 -45 168 -188 205 -202 36 -13 112 -13 139 1 12 6 304 293 650 638
l627 626 0 -1405 c0 -950 4 -1417 11 -1443 12 -44 59 -101 103 -125 24 -13 57
-17 146 -17 106 0 118 2 160 27 28 16 55 43 70 70 l25 43 5 1423 5 1422 620
-621 c341 -341 632 -627 647 -635 32 -16 105 -18 144 -4 37 14 182 157 205
202 28 55 25 115 -10 169 -40 61 -1739 1756 -1774 1769 -43 16 -167 12 -202
-6z"/>
</g>
</svg>
